<svg id="Calque_1" data-name="Calque 1" xmlns="http://www.w3.org/2000/svg" viewBox="0 0 155.7 69.77" style=""><defs><style>.cls-1{fill:none;stroke:#fff;stroke-miterlimit:10;stroke-width:0.5px;}</style></defs><path class="cls-1 RMiOUMPk_0" d="M66.7,71.5c-.1,0-.1-.1-.1-.2v-.1a2.44,2.44,0,0,1,.9-.5c.1-3.6.5-10.3,1-13.8a.22.22,0,0,1,.2-.2c.1,0,.3.1.3.2a2.35,2.35,0,0,1,.2.8v.1a.35.35,0,0,1-.1.2.31.31,0,0,1-.2-.1,100.77,100.77,0,0,0-1,12.8c3.4-1.6,6.4-2.6,7.4-2.6.2,0,.3,0,.3.1h0c0,.1-.8.1-1.1.2a39.29,39.29,0,0,0-7.3,3c-.2-.1-.3,0-.5.1Z" transform="translate(-31.45 -2.88)"></path><path class="cls-1 RMiOUMPk_1" d="M69.5,66.5h0a1.4,1.4,0,0,1,.3-.9,1.42,1.42,0,0,1-.2-.6,1,1,0,0,1,.6-.9.6.6,0,0,1,.4-.1.55.55,0,0,1,.6.4,1.48,1.48,0,0,1,.1.7,2.77,2.77,0,0,1-.1.9,2.57,2.57,0,0,0,1.2-.5h.2l-.1.1a3.1,3.1,0,0,1-1.3.6,2.39,2.39,0,0,1-.3.7.87.87,0,0,1-.7.4A.71.71,0,0,1,69.5,66.5Zm1.3-.4a1.22,1.22,0,0,1-.9-.4,1.7,1.7,0,0,0-.1.7c0,.3.1.6.3.6h.1C70.5,67.1,70.7,66.6,70.8,66.1Zm.1-1.1c0-.6-.3-.8-.5-.8a1,1,0,0,0-.3.1.86.86,0,0,0-.3.6,1.07,1.07,0,0,0,1,1A2.77,2.77,0,0,0,70.9,65Z" transform="translate(-31.45 -2.88)"></path><path class="cls-1 RMiOUMPk_2" d="M72.4,67.4V65.1c0-.9,0-1.1.2-1.1s.2.3.2,1.5v1a11.94,11.94,0,0,1,.8-1.6.82.82,0,0,1,.8-.5.46.46,0,0,1,.5.4c0,.1,0,.1-.1.1h-.1c-.1-.1-.1-.2-.3-.2h-.1c-.5,0-1.4,1.6-1.5,2.7,0,.2-.1.2-.2.2A.22.22,0,0,1,72.4,67.4Z" transform="translate(-31.45 -2.88)"></path><path class="cls-1 RMiOUMPk_3" d="M75.3,66.7a2.35,2.35,0,0,1-.2-.8,1.77,1.77,0,0,1,1.7-1.8c.4,0,.6.3.6.8a2.45,2.45,0,0,1-1.5,2,1.14,1.14,0,0,0,.8.3,4.42,4.42,0,0,0,2.4-1.1c.3-.2.4-.4.7-.6h0a.1.1,0,0,1,.1.1h0a5.07,5.07,0,0,1-3.3,2C76,67.4,75.5,67.2,75.3,66.7Zm1.9-2h0c0-.3-.2-.3-.4-.3a.6.6,0,0,0-.4.1,1.72,1.72,0,0,0-.8,1.4,1.27,1.27,0,0,0,.1.6C75.8,66.5,77.2,65.3,77.2,64.7Z" transform="translate(-31.45 -2.88)"></path><path class="cls-1 RMiOUMPk_4" d="M79.6,67.2h0c.1-3.6.1-4.1.4-4.1.1,0,.2.1.2.5,0,.6-.2,1.8-.2,3.2h0c.1-.2.3-.8.4-1,.4-.8.5-1.1.8-1.1.7,0,.4,1.2.6,1.2.4,0,1.4-1.9,1.9-2.1h.1c.4,0,.5.5.5,1.1s-.1,1.3-.1,1.7v.1c0,.1.1.2.3.2s.9-.3,1.8-1.5c.1-.1.1-.1.2-.1a.1.1,0,0,1,.1.1v.1c-.3.4-1.4,1.8-2.2,1.8-.2,0-.3-.1-.5-.2a1.08,1.08,0,0,1-.3-.7V66a9.89,9.89,0,0,0,.1-1.5c0-.2,0-.3-.1-.3-.4,0-1.2,2-1.9,2s-.3-1.2-.5-1.2c-.4,0-.9,1.2-1,2.2h0c0,.1-.1.2-.3.2S79.6,67.4,79.6,67.2Z" transform="translate(-31.45 -2.88)"></path><path class="cls-1 RMiOUMPk_5" d="M88.5,67.3c-.1-.2-.1-.3-.1-.8a12.27,12.27,0,0,1,.1-1.7c0-.2,0-.6.2-.7h.1c.2,0,.2.3.2.8s-.1,1.1-.1,1.7v.1a1,1,0,0,0,.2.7c0,.1.1.1.2.1.6,0,2.1-1.4,2.3-1.9a.1.1,0,0,1,.1-.1c.1,0,.1,0,.1.1h0c-.2.4-1.8,2.1-2.8,2.1A.89.89,0,0,1,88.5,67.3Zm-.1-4a.27.27,0,0,1,.3-.3.32.32,0,0,1,.3.3.27.27,0,0,1-.3.3A.32.32,0,0,1,88.4,63.3Z" transform="translate(-31.45 -2.88)"></path><path class="cls-1 RMiOUMPk_6" d="M91.7,71.2c-.1-.9-.2-2.6-.2-4.2,0-1.9.1-3.7.3-3.7h.1c.1,0,.1.1.1,1.1a13.57,13.57,0,0,1-.1,1.8c.4-1.4,1-2,1.4-2s.7.4.7,1.2v.5c-.2,1-.6,1.4-1.1,1.4a.76.76,0,0,1-.8-.6c0,.1-.1.2-.1.3v2.1c0,1.3.1,1.9.1,2.1s0,.2-.1.2h-.1C91.8,71.4,91.8,71.3,91.7,71.2Zm1.7-4.9a2.66,2.66,0,0,0,.3-1.2c0-.4-.1-.8-.2-.8h-.1c-.4,0-.9.8-1.2,1.9.1,0,.1.1.1.2.1.3.3.5.5.5S93.2,66.7,93.4,66.3Z" transform="translate(-31.45 -2.88)"></path><path class="cls-1 RMiOUMPk_7" d="M93.8,67.5a1.74,1.74,0,0,1,.9-1.4,3,3,0,0,1-.4-1.3.68.68,0,0,1,.7-.7c.1,0,.2,0,.2.1s-.4.1-.6.3a.31.31,0,0,0-.1.2A5.54,5.54,0,0,0,95,66a4.87,4.87,0,0,1,1.1-.4h.2a.35.35,0,0,1-.2.1,7.6,7.6,0,0,0-1.1.4,3,3,0,0,1,.4,1.4.92.92,0,0,1-.9,1A1,1,0,0,1,93.8,67.5Zm1,.6a.6.6,0,0,0,.3-.6,3.37,3.37,0,0,0-.4-1.2,1.55,1.55,0,0,0-.7,1.2c0,.4.2.6.5.6Z" transform="translate(-31.45 -2.88)"></path><path class="cls-1 RMiOUMPk_8" d="M96.1,65.4a4.44,4.44,0,0,1,.2-1.3c0-.1.2-.1.3-.1h.1a2.51,2.51,0,0,0-.1,1,11.14,11.14,0,0,0,.2,1.7.73.73,0,0,0,.7.6c.5,0,1-.6,1.3-2.1.1-1,0-.9.2-1h.1c.1,0,.1,0,.1.1v1.2a4.89,4.89,0,0,0,.1,1.3c.1.3.3.5.5.5.4,0,.9-.5,1.2-1.5a.1.1,0,0,1,.1-.1h0a6.11,6.11,0,0,1-.7,1.4,1.27,1.27,0,0,1-.7.4c-.5,0-.9-.4-.9-1.2v-.2c-.2.6-.5,1.5-1.3,1.6h-.2C96.3,67.6,96.1,66.4,96.1,65.4Z" transform="translate(-31.45 -2.88)"></path><path class="cls-1 RMiOUMPk_9" d="M100.9,67.2h0c.1-3.6.1-4.1.4-4.1.1,0,.2.1.2.5,0,.6-.2,1.8-.2,3.2h0c.1-.2.3-.8.4-1,.4-.8.5-1.1.8-1.1.7,0,.4,1.2.6,1.2.4,0,1.4-1.9,1.9-2.1h.1c.4,0,.5.5.5,1.1s-.1,1.3-.1,1.7v.1c0,.1.1.2.3.2s.9-.3,1.8-1.5c.1-.1.1-.1.2-.1a.1.1,0,0,1,.1.1v.1c-.3.4-1.4,1.8-2.2,1.8-.2,0-.3-.1-.5-.2a1.08,1.08,0,0,1-.3-.7V66a9.89,9.89,0,0,0,.1-1.5c0-.2,0-.3-.1-.3-.4,0-1.2,2-1.9,2s-.3-1.2-.5-1.2c-.4,0-.9,1.2-1,2.2h0c0,.1-.1.2-.3.2S100.9,67.4,100.9,67.2Z" transform="translate(-31.45 -2.88)"></path><path class="cls-1 RMiOUMPk_10" d="M113.2,69.4c-.1-1.3-.1-2.4-.1-3.4a21,21,0,0,1,.1-2.7c-.2.7-1.1,3.7-2.3,4.1h-.3c-.5,0-1-.3-1-1.2v-.3a1.94,1.94,0,0,1,1.9-1.9,1.22,1.22,0,0,1,.9.3,20.16,20.16,0,0,0,.7-2.3,18.65,18.65,0,0,1,.7-4h.1c.1,0,.1,0,.1.1v.6a91.8,91.8,0,0,0-.6,9.2v1.5h0a.13.13,0,1,1-.2,0Zm-.8-4.8a1.6,1.6,0,0,0-.8-.3c-.8,0-1.2,1.1-1.2,1.8,0,.4.1.8.3.8h.1C111.4,66.9,112.2,65.1,112.4,64.6Z" transform="translate(-31.45 -2.88)"></path><path class="cls-1 RMiOUMPk_11" d="M114,66.5h0a1.4,1.4,0,0,1,.3-.9,1.42,1.42,0,0,1-.2-.6,1,1,0,0,1,.6-.9.6.6,0,0,1,.4-.1.55.55,0,0,1,.6.4,1.48,1.48,0,0,1,.1.7,2.77,2.77,0,0,1-.1.9,2.57,2.57,0,0,0,1.2-.5h.2l-.1.1a3.1,3.1,0,0,1-1.3.6,2.39,2.39,0,0,1-.3.7.87.87,0,0,1-.7.4A.71.71,0,0,1,114,66.5Zm1.3-.4a1.22,1.22,0,0,1-.9-.4,1.7,1.7,0,0,0-.1.7c0,.3.1.6.3.6h.1C115,67.1,115.2,66.6,115.3,66.1Zm.1-1.1c0-.6-.3-.8-.5-.8a1,1,0,0,0-.3.1.86.86,0,0,0-.3.6,1.07,1.07,0,0,0,1,1A2.77,2.77,0,0,0,115.4,65Z" transform="translate(-31.45 -2.88)"></path><path class="cls-1 RMiOUMPk_12" d="M116.8,72.1v-1c0-4.7.2-13.9.5-13.9h.1a6.27,6.27,0,0,1,.1,1.9c0,3.5-.3,10.9-.4,13,0,.1-.1.1-.2.1A.1.1,0,0,1,116.8,72.1Z" transform="translate(-31.45 -2.88)"></path><path class="cls-1 RMiOUMPk_13" d="M117.6,66.5h0a1.4,1.4,0,0,1,.3-.9,1.42,1.42,0,0,1-.2-.6,1,1,0,0,1,.6-.9.6.6,0,0,1,.4-.1.55.55,0,0,1,.6.4,1.48,1.48,0,0,1,.1.7,2.77,2.77,0,0,1-.1.9,2.57,2.57,0,0,0,1.2-.5h.2l-.1.1a3.1,3.1,0,0,1-1.3.6,2.39,2.39,0,0,1-.3.7.87.87,0,0,1-.7.4A.71.71,0,0,1,117.6,66.5Zm1.3-.4a1.22,1.22,0,0,1-.9-.4,1.7,1.7,0,0,0-.1.7c0,.3.1.6.3.6h.1C118.6,67.1,118.8,66.6,118.9,66.1Zm.2-1.1c0-.6-.3-.8-.5-.8a1,1,0,0,0-.3.1.86.86,0,0,0-.3.6,1.07,1.07,0,0,0,1,1C119,65.6,119.1,65.3,119.1,65Z" transform="translate(-31.45 -2.88)"></path><path class="cls-1 RMiOUMPk_14" d="M120.5,67.4V65.1c0-.9,0-1.1.2-1.1s.2.3.2,1.5v1a11.94,11.94,0,0,1,.8-1.6.82.82,0,0,1,.8-.5.46.46,0,0,1,.5.4c0,.1,0,.1-.1.1h-.1c-.1-.1-.1-.2-.3-.2h-.1c-.5,0-1.4,1.6-1.5,2.7,0,.2-.1.2-.2.2A.22.22,0,0,1,120.5,67.4Z" transform="translate(-31.45 -2.88)"></path><path class="cls-1 RMiOUMPk_15" d="M124.7,67.5a1.74,1.74,0,0,1,.9-1.4,3,3,0,0,1-.4-1.3.68.68,0,0,1,.7-.7c.1,0,.2,0,.2.1s-.4.1-.6.3a.31.31,0,0,0-.1.2,5.54,5.54,0,0,0,.5,1.3,4.87,4.87,0,0,1,1.1-.4h.2a.35.35,0,0,1-.2.1,7.6,7.6,0,0,0-1.1.4,3,3,0,0,1,.4,1.4.92.92,0,0,1-.9,1A1.13,1.13,0,0,1,124.7,67.5Zm1,.6a.6.6,0,0,0,.3-.6,3.37,3.37,0,0,0-.4-1.2,1.55,1.55,0,0,0-.7,1.2c0,.4.2.6.5.6Z" transform="translate(-31.45 -2.88)"></path><path class="cls-1 RMiOUMPk_16" d="M127.1,67.3c-.1-.2-.1-.3-.1-.8a12.27,12.27,0,0,1,.1-1.7c0-.2,0-.6.2-.7h.1c.2,0,.2.3.2.8s-.1,1.1-.1,1.7v.1a1,1,0,0,0,.2.7c0,.1.1.1.2.1.6,0,2.1-1.4,2.3-1.9a.1.1,0,0,1,.1-.1c.1,0,.1,0,.1.1h0c-.2.4-1.8,2.1-2.8,2.1A.66.66,0,0,1,127.1,67.3Zm-.1-4a.27.27,0,0,1,.3-.3.32.32,0,0,1,.3.3.27.27,0,0,1-.3.3A.32.32,0,0,1,127,63.3Z" transform="translate(-31.45 -2.88)"></path><path class="cls-1 RMiOUMPk_17" d="M130.1,72.1V69.3c0-4.1.2-9.1.2-9.8-.6,0-1.1.1-1.4.1s-.4,0-.4-.1h0c.3,0,.4,0,1.8-.1a12.09,12.09,0,0,1,.2-2.1h.1a6.26,6.26,0,0,1,.1,2c1.1-.1,2.8-.2,2.8-.2h0c.3,0,.4.1.4.2a.35.35,0,0,1-.1.2h0c-.1,0-.2-.1-.3-.1h-.1c-.3,0-.9.1-2.7.2-.2,2.8-.2,9.9-.3,12.7,0,.1-.1.1-.2.1S130.1,72.2,130.1,72.1Z" transform="translate(-31.45 -2.88)"></path><path class="cls-1 RMiOUMPk_18" d="M136.8,67.2a1.25,1.25,0,0,1-.5-1.2v-.2c-.9,1.1-1.4,1.3-1.8,1.3h-.2c-.4,0-.6-.3-.6-.7a2.38,2.38,0,0,1,1.7-2,1.27,1.27,0,0,1,.6-.1.91.91,0,0,1,.9.5h0a2.92,2.92,0,0,0-.9-.2c-.8,0-1.2.6-1.6,1.2a1.42,1.42,0,0,0-.2.6c0,.2.1.4.3.4s.7-.2,1.3-.9.7-.9.8-.9.2.1.2.4V66c0,.5.1,1,.5,1h.1c.6-.1,1-1,1.3-1.5l.1-.1a.1.1,0,0,1,.1.1v.1c-.2.4-.9,1.7-1.7,1.7C137,67.3,136.9,67.3,136.8,67.2Z" transform="translate(-31.45 -2.88)"></path><path class="cls-1 RMiOUMPk_19" d="M138.5,67.2h0c.1-3.6.1-4.1.4-4.1.1,0,.2.1.2.5,0,.6-.2,1.8-.2,3.2h0c.1-.2.3-.8.4-1,.4-.8.5-1.1.8-1.1.7,0,.4,1.2.6,1.2.4,0,1.4-1.9,1.9-2.1h.1c.4,0,.5.5.5,1.1s-.1,1.3-.1,1.7v.1c0,.1.1.2.3.2s.9-.3,1.8-1.5c.1-.1.1-.1.2-.1a.1.1,0,0,1,.1.1v.1c-.3.4-1.4,1.8-2.2,1.8-.2,0-.3-.1-.5-.2a1.08,1.08,0,0,1-.3-.7V66a9.89,9.89,0,0,0,.1-1.5c0-.2,0-.3-.1-.3-.4,0-1.2,2-1.9,2s-.3-1.2-.5-1.2c-.4,0-.9,1.2-1,2.2h0c0,.1-.1.2-.3.2S138.5,67.4,138.5,67.2Z" transform="translate(-31.45 -2.88)"></path><path class="cls-1 RMiOUMPk_20" d="M145.6,67.1c-.1,0-.1-.1-.1-.2s0-.1.1-.2a.35.35,0,0,1,.2-.1h.1a.32.32,0,0,1,.3.3.27.27,0,0,1-.3.3A.37.37,0,0,0,145.6,67.1Z" transform="translate(-31.45 -2.88)"></path><path class="cls-1 RMiOUMPk_21" d="M146.8,67.1c-.1,0-.1-.1-.1-.2s0-.1.1-.2a.35.35,0,0,1,.2-.1h.1a.32.32,0,0,1,.3.3.27.27,0,0,1-.3.3A.77.77,0,0,0,146.8,67.1Z" transform="translate(-31.45 -2.88)"></path><path class="cls-1 RMiOUMPk_22" d="M147.9,67.1c-.1,0-.1-.1-.1-.2s0-.1.1-.2a.35.35,0,0,1,.2-.1h.1a.32.32,0,0,1,.3.3.27.27,0,0,1-.3.3A.37.37,0,0,0,147.9,67.1Z" transform="translate(-31.45 -2.88)"></path><path class="cls-1 RMiOUMPk_23" d="M59.6,66.9a1.27,1.27,0,0,0,.6-.1c4.3-.1,8.6-.3,12.9-.4l18.2-.6c3.5-.1,7-.2,10.5-.4l18.3-.6c4.7-.2,9.4-.3,14.1-.5l16.1-.6a12.75,12.75,0,0,0,2-.1.6.6,0,0,0,.4-.1H156v.2c.1.4-.1.5-.4.5-1.1,0-2.2.1-3.3.1-4.7.2-9.4.3-14.1.5-4.4.1-8.8.3-13.2.4-6.6.2-13.1.5-19.7.7-4.2.1-8.4.3-12.6.4L76,66.9c-3.9.1-7.9.3-11.8.4-1.4,0-2.8.1-4.3.1h-.4A.75.75,0,0,0,59.6,66.9Z" transform="translate(-31.45 -2.88)"></path><path class="cls-1 RMiOUMPk_24" d="M34.1,29.8v17H61.9V34.6H50.2V32.2H64.1v17H31.7V27.4H64.1v2.4Z" transform="translate(-31.45 -2.88)"></path><path class="cls-1 RMiOUMPk_25" d="M68.8,27.4h32.4V49.2H98.9V34.6H71.1V49.1H68.8Zm2.3,2.4v2.4H98.9V29.8Z" transform="translate(-31.45 -2.88)"></path><path class="cls-1 RMiOUMPk_26" d="M121.5,40v9.4h-2.2V40" transform="translate(-31.45 -2.88)"></path><path class="cls-1 RMiOUMPk_27" d="M142.8,27.4h32.4V49.2h-2.3V34.6H145.1V49.1h-2.3Zm2.3,2.4v2.4h27.8V29.8Z" transform="translate(-31.45 -2.88)"></path><path class="cls-1 RMiOUMPk_28" d="M134.1,29.6v.1c-.1.5-.1,1.1-.2,1.6a8.33,8.33,0,0,1-.4,1.5,10.14,10.14,0,0,1-1,2.4,15.65,15.65,0,0,1-2.3,3.4,12.42,12.42,0,0,1-3.9,2.9,26,26,0,0,1-2.5,1c-.2.1-.5.1-.7.2a1.09,1.09,0,0,0-.5.1,19.4,19.4,0,0,1-3.4.2c-.3,0-.6-.1-.9-.1s-.6-.1-.9-.1c-.6-.2-1.2-.3-1.8-.5a16.1,16.1,0,0,1-4.4-2.5,12.7,12.7,0,0,1-3.3-4.3,20.29,20.29,0,0,1-1.1-2.6,13.32,13.32,0,0,1-.5-1.9,4.87,4.87,0,0,1-.1-1.2,9.63,9.63,0,0,1,0-1.7,8.33,8.33,0,0,1,.3-2.2,13.09,13.09,0,0,1,.9-2.8c0-.1.1-.1.1-.2-.1.4-.1.7-.2,1.1s-.1.6-.1,1a14.05,14.05,0,0,0,0,2.9,20.69,20.69,0,0,0,.4,2.2,16.13,16.13,0,0,0,1.5,3.6,11.8,11.8,0,0,0,2.7,3.2,13.79,13.79,0,0,0,2.5,1.7,16.67,16.67,0,0,0,2,.8c.4.1.9.3,1.3.4a13.55,13.55,0,0,0,2,.2h1.3a8.75,8.75,0,0,0,1.6-.2,11.47,11.47,0,0,0,3.1-1.1,12,12,0,0,0,5-4.5,14,14,0,0,0,1.5-3,11.7,11.7,0,0,0,.5-2,14.13,14.13,0,0,0,.2-4.1c-.1-.7-.2-1.4-.3-2a.35.35,0,0,1,.1.2l.6,1.8a10.62,10.62,0,0,1,.4,1.9,3.75,3.75,0,0,1,.1,1.1v.2C134.1,28.5,134.1,29,134.1,29.6Z" transform="translate(-31.45 -2.88)"></path><path class="cls-1 RMiOUMPk_29" d="M107.5,38.1a16.24,16.24,0,0,1-1.9-4c-.4,0-.7-.1-.8-.5s0-.6.4-.9a17,17,0,0,1-.3-5.5,16.13,16.13,0,0,1,1.5-5.3c-.3-.3-.4-.6-.2-.9a.67.67,0,0,1,.8-.3c.3-.4.5-.8.8-1.2a3.91,3.91,0,0,1-2.6.4,4,4,0,0,1-2.2-1.4h.1a3.4,3.4,0,0,0,1,.1,3.46,3.46,0,0,0,3.4-3.2,3.76,3.76,0,0,0-.9-2.9c-.1-.1-.1-.2-.2-.2h0a3.56,3.56,0,0,1,2.7,1.9,4.05,4.05,0,0,1,.3,3.4,16,16,0,0,1,6-3.9.75.75,0,0,1,.1-.5c.1-.1.2-.2.3-.2.3-.1.5,0,.8.4a15,15,0,0,1,10.6,1.2.76.76,0,0,1,.4-.2h.4c.3-.6.7-1.2,1-1.9a3,3,0,0,1-1.4-2.3,2.62,2.62,0,0,1,.5-1.7,2.6,2.6,0,0,1,3.6-.9c.1-.1,1.8-3.2,1.9-3.5l-.1-.1a.85.85,0,0,1,0-.7.59.59,0,0,1,.7-.1.48.48,0,0,1,.2.6.68.68,0,0,1-.6.4c-.1,0-.1,0-.2.1l-1.8,3.3v.1l.1.1A3.33,3.33,0,0,1,133,9.7a2.93,2.93,0,0,1-1.9,3.2,2.77,2.77,0,0,1-2-.1H129c-.1.1-.9,1.5-1.1,1.9a.52.52,0,0,1,.2.4v.4a16,16,0,0,1,4,3.8,15.65,15.65,0,0,1,2.5,5c.4,0,.7.2.7.6s-.1.6-.4.8a17.13,17.13,0,0,1-.1,7.8,3.61,3.61,0,0,1,3.6-1.5,3.74,3.74,0,0,1,2.3,1.4.37.37,0,0,1-.3-.1,2.77,2.77,0,0,0-.9-.1,3.35,3.35,0,0,0-3.1,2.1,3.52,3.52,0,0,0,.6,3.9l.3.3h0a4.1,4.1,0,0,1-2.3-1.3,3.92,3.92,0,0,1-.9-2.6h0c-.1.2-.1.3-.2.5s-.1.3-.2.5a.6.6,0,0,1,.3.6c0,.2,0,.3-.1.4a.76.76,0,0,1-.9.3,15.65,15.65,0,0,1-8.3,6.7c0,.5-.2.7-.5.8s-.6,0-.8-.5a16.41,16.41,0,0,1-4.4.4,7,7,0,0,1-2.7,3.8,6.07,6.07,0,0,1-3.7,1.2,6.9,6.9,0,0,1-6.2-3.8,7.42,7.42,0,0,1-.7-2.1,8.13,8.13,0,0,1-.1-2.2,8.3,8.3,0,0,1,.6-2.1A9.86,9.86,0,0,1,107.5,38.1ZM124,21.3a4.35,4.35,0,0,1-.7-.6,5.58,5.58,0,0,1-.5-.8,2.92,2.92,0,0,1-.2-.9,2.77,2.77,0,0,1,.1-.9,3,3,0,0,1,2.9-2.4,12.64,12.64,0,0,0-3.2-1.1,12.19,12.19,0,0,0-6,.4,13.4,13.4,0,0,0-8.2,7.1c-.1,0-.1-.1-.2-.1a13.49,13.49,0,0,1,19-5.9l.3-.6a.76.76,0,0,1-.2-.4.9.9,0,0,1,.1-.5,14.77,14.77,0,0,0-10.5-1.2c0,.4-.1.6-.4.7a.63.63,0,0,1-.8-.3h-.1a16.18,16.18,0,0,0-6.1,4l-.2.2a3.92,3.92,0,0,1-.8,1l-.2.2c-.3.4-.6.9-.9,1.3a.1.1,0,0,1-.1.1c.3.3.4.6.2.9l-.3.3a.64.64,0,0,1-.6,0,16.47,16.47,0,0,0-1.1,10.7.75.75,0,0,1,.8.5.81.81,0,0,1-.4.9,20.88,20.88,0,0,0,1.9,4,6.06,6.06,0,0,1,3.9-2.1,6.49,6.49,0,0,1,4.3.7,7,7,0,0,1,2.7,2.7,7.55,7.55,0,0,1,.7,5.7,12.35,12.35,0,0,0,4.3-.4c0-.5.2-.7.5-.8a.81.81,0,0,1,.9.4,15.25,15.25,0,0,0,8.2-6.6,1,1,0,0,1-.2-.9c.2-.4.5-.4.9-.4.2-.4.4-.9.6-1.3,0-.1.1-.2.1-.4a1.85,1.85,0,0,0,.2-.7c0-.1.1-.3.1-.4a12.09,12.09,0,0,0,.6-3.8,19.81,19.81,0,0,0-.3-4.2v-.1a.79.79,0,0,1-.8-.5v-.4c.1-.2.2-.4.4-.4a16.32,16.32,0,0,0-6.5-8.7c-.1.1-.2.3-.4.3s-.3,0-.5,0c-.1.2-.2.3-.3.5v.1a14.25,14.25,0,0,1,3,2.5,14.61,14.61,0,0,1,2.2,3.3l-.1.1a.1.1,0,0,0-.1.1,11.78,11.78,0,0,0-1.1-1.9,11.51,11.51,0,0,0-1.4-1.7,12.71,12.71,0,0,0-1.6-1.4,3.17,3.17,0,0,1-.4,3.6,2.77,2.77,0,0,1-3.4.6l-3,5.4.1.1a1.24,1.24,0,0,1,.3,1.4,1.33,1.33,0,0,1-1.1.8,1.08,1.08,0,0,1-1.1-.7,1.21,1.21,0,0,1,.2-1.4,1.25,1.25,0,0,1,1.3-.4c.1,0,.1,0,.2.1Q122.5,24.15,124,21.3Zm-10.8,22a.59.59,0,0,1-.9.2l-.3-.3a.64.64,0,0,1,0-.6,16.35,16.35,0,0,1-4.4-4.3,7.32,7.32,0,0,0-1.2,7.4,6.59,6.59,0,0,0,7,4.2,6.46,6.46,0,0,0,5.4-4.8A14.7,14.7,0,0,1,113.2,43.3Zm5.7,1.6a6.93,6.93,0,0,0-3.1-8,6.28,6.28,0,0,0-8.1,1.3,17.83,17.83,0,0,0,2.2,2.6,18.39,18.39,0,0,0,2.2,1.7.8.8,0,0,1,.9-.2c.3.2.4.4.3.9A13.55,13.55,0,0,0,118.9,44.9ZM103.7,18.8a3.29,3.29,0,0,0,3.7.4,3.71,3.71,0,0,0,1.9-3.7,3.49,3.49,0,0,0-2.2-2.9,4,4,0,0,1,.2,4.2A3.58,3.58,0,0,1,103.7,18.8Zm33.1,20.1a4.21,4.21,0,0,1-.2-4.2,3.57,3.57,0,0,1,3.6-1.9,3.24,3.24,0,0,0-3.5-.6,3.69,3.69,0,0,0-2.1,3.8,3.46,3.46,0,0,0,1,2.1A3.6,3.6,0,0,0,136.8,38.9Zm-9.9-22.5c-.9,1.6-1.7,3.2-2.6,4.8a2.88,2.88,0,0,0,2.4.1,2.55,2.55,0,0,0,1.5-2.5A3.23,3.23,0,0,0,126.9,16.4Zm-.2,0a2.45,2.45,0,0,0-2.6.1,2.63,2.63,0,0,0-1.2,2.7c.1.8.7,1.8,1.2,1.9C125,19.5,125.9,17.9,126.7,16.4Zm4.9-8.9a2.45,2.45,0,0,0-2.5-.1,2.7,2.7,0,0,0-1.5,2.6,2.61,2.61,0,0,0,1.3,2.3,10.93,10.93,0,0,0,.8-1.5c-.4-.5-.6-.9-.3-1.3a.78.78,0,0,1,.4-.4,1,1,0,0,1,.9,0C131.1,8.5,131.3,8,131.6,7.5Zm-2.5,4.9a2.49,2.49,0,0,0,2.5-.1A2.85,2.85,0,0,0,133,9.8a2.71,2.71,0,0,0-1.2-2.2l-.1.1c-.2.4-.5.8-.7,1.3-.1.1-.1.1,0,.2a1,1,0,0,1,.1,1.2.88.88,0,0,1-1,.5c-.1,0-.1,0-.2.1a7.46,7.46,0,0,1-.7,1.2A.31.31,0,0,1,129.1,12.4Zm-4.9,32.7a.65.65,0,0,0,.6-.6.58.58,0,0,0-.6-.6.6.6,0,0,0,0,1.2Zm-11-2.1c.1-.3-.1-.5-.3-.7a.53.53,0,0,0-.7.2.61.61,0,0,0,0,.8C112.5,42.9,112.7,42.8,113.2,43Zm-7-21.8a.67.67,0,0,0,.3.7.53.53,0,0,0,.7-.2.6.6,0,0,0,0-.8.78.78,0,0,1-.4.4A.61.61,0,0,1,106.2,21.2Zm27.7,15.4a.78.78,0,0,1-.4.4.66.66,0,0,1-.6-.1.61.61,0,0,0,.3.7.57.57,0,0,0,.7-.2A.6.6,0,0,0,133.9,36.6Zm-6.7-21.2c.3-.4.5-.5,1-.3a.49.49,0,0,0-.3-.6.53.53,0,0,0-.7.2C127,14.8,127,15.1,127.2,15.4Zm8.3,9.2a.6.6,0,0,0-.8-.4.55.55,0,0,0-.3.7ZM106,33.2l-1.1.3a.57.57,0,0,0,.7.4C105.9,33.9,106.1,33.6,106,33.2Z" transform="translate(-31.45 -2.88)"></path><path class="cls-1 RMiOUMPk_30" d="M140.2,36.4a.77.77,0,0,1-.7.8.71.71,0,0,1-.7-.8.71.71,0,1,1,1.4,0Z" transform="translate(-31.45 -2.88)"></path><path class="cls-1 RMiOUMPk_31" d="M103.7,15.2a.77.77,0,0,1,.7-.8.71.71,0,0,1,.7.8.71.71,0,1,1-1.4,0Z" transform="translate(-31.45 -2.88)"></path><path class="cls-1 RMiOUMPk_32" d="M119.1,31.5a1,1,0,0,1-1-1,1,1,0,1,1,2,0A1.08,1.08,0,0,1,119.1,31.5Zm-.1-1.9a.82.82,0,0,0-.8.9.88.88,0,0,0,.8.9.82.82,0,0,0,.8-.9A.77.77,0,0,0,119,29.6Z" transform="translate(-31.45 -2.88)"></path><path class="cls-1 RMiOUMPk_33" width="4.1" height="1.1" d="M146.45 36.52 L150.54999999999998 36.52 L150.54999999999998 37.620000000000005 L146.45 37.620000000000005 Z"></path><path class="cls-1 RMiOUMPk_34" d="M175.2,27.4V49.2h11.7V27.4Zm5.3,19.9h-1V42h1Zm2.5-10h-5.1v1.1H183v3.2h-6.1V36.3H183Zm0-1.6h-6.1V34.6H182V33.5h-5.1V32.4H182V31.3h-5.1V30.2H183Z" transform="translate(-31.45 -2.88)"></path><style data-made-with="vivus-instant">.RMiOUMPk_0{stroke-dasharray:48 50;stroke-dashoffset:49;animation:RMiOUMPk_draw 2000ms linear 0ms forwards;}.RMiOUMPk_1{stroke-dasharray:20 22;stroke-dashoffset:21;animation:RMiOUMPk_draw 2000ms linear 29ms forwards;}.RMiOUMPk_2{stroke-dasharray:15 17;stroke-dashoffset:16;animation:RMiOUMPk_draw 2000ms linear 58ms forwards;}.RMiOUMPk_3{stroke-dasharray:24 26;stroke-dashoffset:25;animation:RMiOUMPk_draw 2000ms linear 88ms forwards;}.RMiOUMPk_4{stroke-dasharray:36 38;stroke-dashoffset:37;animation:RMiOUMPk_draw 2000ms linear 117ms forwards;}.RMiOUMPk_5{stroke-dasharray:17 19;stroke-dashoffset:18;animation:RMiOUMPk_draw 2000ms linear 147ms forwards;}.RMiOUMPk_6{stroke-dasharray:31 33;stroke-dashoffset:32;animation:RMiOUMPk_draw 2000ms linear 176ms forwards;}.RMiOUMPk_7{stroke-dasharray:19 21;stroke-dashoffset:20;animation:RMiOUMPk_draw 2000ms linear 205ms forwards;}.RMiOUMPk_8{stroke-dasharray:25 27;stroke-dashoffset:26;animation:RMiOUMPk_draw 2000ms linear 235ms forwards;}.RMiOUMPk_9{stroke-dasharray:36 38;stroke-dashoffset:37;animation:RMiOUMPk_draw 2000ms linear 264ms forwards;}.RMiOUMPk_10{stroke-dasharray:44 46;stroke-dashoffset:45;animation:RMiOUMPk_draw 2000ms linear 294ms forwards;}.RMiOUMPk_11{stroke-dasharray:20 22;stroke-dashoffset:21;animation:RMiOUMPk_draw 2000ms linear 323ms forwards;}.RMiOUMPk_12{stroke-dasharray:31 33;stroke-dashoffset:32;animation:RMiOUMPk_draw 2000ms linear 352ms forwards;}.RMiOUMPk_13{stroke-dasharray:20 22;stroke-dashoffset:21;animation:RMiOUMPk_draw 2000ms linear 382ms forwards;}.RMiOUMPk_14{stroke-dasharray:15 17;stroke-dashoffset:16;animation:RMiOUMPk_draw 2000ms linear 411ms forwards;}.RMiOUMPk_15{stroke-dasharray:19 21;stroke-dashoffset:20;animation:RMiOUMPk_draw 2000ms linear 441ms forwards;}.RMiOUMPk_16{stroke-dasharray:17 19;stroke-dashoffset:18;animation:RMiOUMPk_draw 2000ms linear 470ms forwards;}.RMiOUMPk_17{stroke-dasharray:41 43;stroke-dashoffset:42;animation:RMiOUMPk_draw 2000ms linear 500ms forwards;}.RMiOUMPk_18{stroke-dasharray:25 27;stroke-dashoffset:26;animation:RMiOUMPk_draw 2000ms linear 529ms forwards;}.RMiOUMPk_19{stroke-dasharray:36 38;stroke-dashoffset:37;animation:RMiOUMPk_draw 2000ms linear 558ms forwards;}.RMiOUMPk_20{stroke-dasharray:3 5;stroke-dashoffset:4;animation:RMiOUMPk_draw 2000ms linear 588ms forwards;}.RMiOUMPk_21{stroke-dasharray:3 5;stroke-dashoffset:4;animation:RMiOUMPk_draw 2000ms linear 617ms forwards;}.RMiOUMPk_22{stroke-dasharray:3 5;stroke-dashoffset:4;animation:RMiOUMPk_draw 2000ms linear 647ms forwards;}.RMiOUMPk_23{stroke-dasharray:195 197;stroke-dashoffset:196;animation:RMiOUMPk_draw 2000ms linear 676ms forwards;}.RMiOUMPk_24{stroke-dasharray:221 223;stroke-dashoffset:222;animation:RMiOUMPk_draw 2000ms linear 705ms forwards;}.RMiOUMPk_25{stroke-dasharray:198 200;stroke-dashoffset:199;animation:RMiOUMPk_draw 2000ms linear 735ms forwards;}.RMiOUMPk_26{stroke-dasharray:21 23;stroke-dashoffset:22;animation:RMiOUMPk_draw 2000ms linear 764ms forwards;}.RMiOUMPk_27{stroke-dasharray:198 200;stroke-dashoffset:199;animation:RMiOUMPk_draw 2000ms linear 794ms forwards;}.RMiOUMPk_28{stroke-dasharray:105 107;stroke-dashoffset:106;animation:RMiOUMPk_draw 2000ms linear 823ms forwards;}.RMiOUMPk_29{stroke-dasharray:583 585;stroke-dashoffset:584;animation:RMiOUMPk_draw 2000ms linear 852ms forwards;}.RMiOUMPk_30{stroke-dasharray:5 7;stroke-dashoffset:6;animation:RMiOUMPk_draw 2000ms linear 882ms forwards;}.RMiOUMPk_31{stroke-dasharray:5 7;stroke-dashoffset:6;animation:RMiOUMPk_draw 2000ms linear 911ms forwards;}.RMiOUMPk_32{stroke-dasharray:12 14;stroke-dashoffset:13;animation:RMiOUMPk_draw 2000ms linear 941ms forwards;}.RMiOUMPk_33{stroke-dasharray:11 13;stroke-dashoffset:12;animation:RMiOUMPk_draw 2000ms linear 970ms forwards;}.RMiOUMPk_34{stroke-dasharray:157 159;stroke-dashoffset:158;animation:RMiOUMPk_draw 2000ms linear 1000ms forwards;}@keyframes RMiOUMPk_draw{100%{stroke-dashoffset:0;}}@keyframes RMiOUMPk_fade{0%{stroke-opacity:1;}94.44444444444444%{stroke-opacity:1;}100%{stroke-opacity:0;}}</style></svg>